<svg width="128" height="34" viewBox="0 0 128 34" fill="none" xmlns="http://www.w3.org/2000/svg">
<path d="M31.0337 16.9828C31.0337 9.22984 24.7487 2.94482 16.9957 2.94482C9.24278 2.94482 2.95776 9.22984 2.95776 16.9828V17.0173C2.95776 24.7702 9.24278 31.0552 16.9957 31.0552C24.7487 31.0552 31.0337 24.7702 31.0337 17.0173V16.9828Z" fill="url(#paint0_linear_618_63990)"/>
<path d="M23.0975 21.1765C23.1226 21.7687 22.8297 22.4094 22.5524 22.8778C22.1137 23.6078 21.4965 24.2047 20.8198 24.7013C20.6694 24.8141 20.5127 24.9238 20.3529 25.0272C19.3065 25.7117 18.0845 26.0674 16.8329 26.0423C15.4997 26.0172 14.248 25.505 13.1718 24.7217C12.3196 24.0997 11.4971 23.2914 11.0397 22.3201C10.8204 21.8517 10.6747 21.2408 10.8454 20.7332C11.035 20.1755 11.6146 19.8904 12.2381 20.1567C12.7692 20.3839 13.1044 20.9807 13.4945 21.4288C14.2449 22.2966 15.2663 23.1206 16.4302 23.282C16.601 23.3071 16.7718 23.3165 16.9409 23.3165C17.812 23.3165 18.6736 22.9953 19.3503 22.4486C19.7451 22.1337 20.1007 21.7734 20.4015 21.3739C20.6647 21.0293 20.8793 20.6345 21.2192 20.3588C21.5106 20.1175 21.9054 20.0095 22.2798 20.0784C22.5132 20.1222 22.7278 20.2507 22.8641 20.4528C23.0098 20.669 23.0834 20.9259 23.0928 21.1781H23.0975V21.1765Z" fill="#F6F4EE"/>
<path d="M37.3971 12.7437H39.4399V8.78027H42.5981V12.7437H45.9114V15.2267H42.5981V20.636C42.5981 21.966 43.1339 22.6303 44.2038 22.6303C44.8085 22.6303 45.3772 22.3968 45.9129 21.9316L47.1051 23.9493C46.1557 24.7968 44.9981 25.2182 43.6351 25.2182C42.2722 25.2182 41.232 24.8391 40.5146 24.0809C39.7986 23.3211 39.4399 22.2089 39.4399 20.7394V15.2267H37.3971V12.7437Z" fill="#ffff"/>
<path d="M47.2336 18.8502C47.2336 17.5734 47.4952 16.4486 48.0216 15.4727C48.5479 14.4967 49.2764 13.7353 50.2101 13.1808C51.1406 12.6294 52.2027 12.3536 53.3933 12.3536C54.5839 12.3536 55.6319 12.6341 56.539 13.1964C57.4444 13.7573 58.1525 14.5421 58.6632 15.551C59.1708 16.5599 59.4261 17.7379 59.4261 19.0836V19.7306H50.3401C50.4607 20.647 50.8461 21.3614 51.4931 21.8799C52.1401 22.3984 52.9891 22.6569 54.0419 22.6569C55.3875 22.6569 56.6142 22.2089 57.7186 21.3112L59.0893 23.2788C58.4705 23.9008 57.6967 24.3786 56.7739 24.7154C55.8497 25.0506 54.8612 25.2183 53.81 25.2183C52.4972 25.2183 51.3458 24.9551 50.3526 24.4303C49.361 23.9039 48.5934 23.1598 48.0498 22.2042C47.5062 21.2454 47.2351 20.1285 47.2351 18.8502H47.2336ZM55.4643 15.7202C54.9458 15.2361 54.2831 14.9949 53.4716 14.9949C52.6602 14.9949 51.927 15.2392 51.3756 15.7327C50.821 16.223 50.4873 16.8857 50.3651 17.7128H56.3964C56.293 16.8685 55.9828 16.2027 55.4659 15.7202H55.4643Z" fill="#ffff"/>
<path d="M61.187 12.7437H64.0882L64.2418 14.4246C64.6036 13.787 65.1222 13.2826 65.7958 12.9098C66.4679 12.5385 67.2449 12.3536 68.1253 12.3536C69.9378 12.3536 71.1613 13.1056 71.7989 14.6064C72.214 13.881 72.778 13.3249 73.4955 12.938C74.2114 12.5479 75.0464 12.3536 75.9941 12.3536C77.426 12.3536 78.5382 12.7938 79.3325 13.6742C80.1267 14.5547 80.5246 15.7875 80.5246 17.376V24.8313H77.3649V17.8946C77.3649 16.0664 76.6317 15.15 75.1654 15.15C74.3179 15.15 73.6552 15.457 73.1727 16.0711C72.6887 16.6821 72.4474 17.5249 72.4474 18.5948V24.8329H69.2892V17.8961C69.2892 16.9985 69.0934 16.3155 68.7049 15.8502C68.318 15.3849 67.7697 15.1515 67.0616 15.1515C66.2344 15.1515 65.5718 15.4586 65.0814 16.0727C64.588 16.6836 64.3436 17.5264 64.3436 18.5964V24.8344H61.1838V12.7437H61.187Z" fill="#ffff"/>
<path d="M81.8185 12.7437H83.8613V8.78027H87.0195V12.7437H90.3328V15.2267H87.0195V20.636C87.0195 21.966 87.5553 22.6303 88.6253 22.6303C89.23 22.6303 89.7986 22.3968 90.3344 21.9316L91.5265 23.9493C90.5772 24.7968 89.4195 25.2182 88.0566 25.2182C86.6937 25.2182 85.6535 24.8391 84.936 24.0809C84.2201 23.3211 83.8613 22.2089 83.8613 20.7394V15.2267H81.8185V12.7437Z" fill="#ffff"/>
<path d="M91.655 18.8502C91.655 17.5734 91.9166 16.4486 92.443 15.4727C92.9694 14.4967 93.6978 13.7353 94.6315 13.1808C95.562 12.6294 96.6242 12.3536 97.8148 12.3536C99.0053 12.3536 100.053 12.6341 100.96 13.1964C101.866 13.7573 102.574 14.5421 103.085 15.551C103.592 16.5599 103.848 17.7379 103.848 19.0836V19.7306H94.7615C94.8822 20.647 95.2675 21.3614 95.9145 21.8799C96.5615 22.3984 97.4106 22.6569 98.4633 22.6569C99.809 22.6569 101.036 22.2089 102.14 21.3112L103.511 23.2788C102.892 23.9008 102.118 24.3786 101.195 24.7154C100.271 25.0506 99.2826 25.2183 98.2315 25.2183C96.9187 25.2183 95.7673 24.9551 94.7741 24.4303C93.7824 23.9039 93.0148 23.1598 92.4712 22.2042C91.9276 21.2454 91.6566 20.1285 91.6566 18.8502H91.655ZM99.8857 15.7202C99.3672 15.2361 98.7046 14.9949 97.8931 14.9949C97.0816 14.9949 96.3485 15.2392 95.797 15.7327C95.2425 16.223 94.9088 16.8857 94.7866 17.7128H100.818C100.714 16.8685 100.404 16.2027 99.8873 15.7202H99.8857Z" fill="#ffff"/>
<path d="M105.607 12.7437H108.508L108.662 14.4246C109.023 13.787 109.542 13.2826 110.216 12.9098C110.888 12.5385 111.665 12.3536 112.545 12.3536C114.358 12.3536 115.581 13.1056 116.219 14.6064C116.634 13.881 117.198 13.3249 117.915 12.938C118.631 12.5479 119.466 12.3536 120.414 12.3536C121.846 12.3536 122.958 12.7938 123.752 13.6742C124.547 14.5547 124.944 15.7875 124.944 17.376V24.8313H121.785V17.8946C121.785 16.0664 121.052 15.15 119.585 15.15C118.738 15.15 118.075 15.457 117.593 16.0711C117.108 16.6821 116.867 17.5249 116.867 18.5948V24.8329H113.709V17.8961C113.709 16.9985 113.513 16.3155 113.125 15.8502C112.738 15.3849 112.189 15.1515 111.481 15.1515C110.654 15.1515 109.992 15.4586 109.501 16.0727C109.008 16.6836 108.763 17.5264 108.763 18.5964V24.8344H105.604V12.7437H105.607Z" fill="#ffff"/>
<defs>
<linearGradient id="paint0_linear_618_63990" x1="31.2217" y1="16.7666" x2="2.74628" y2="17.235" gradientUnits="userSpaceOnUse">
<stop stop-color="#FF6B64"/>
<stop offset="0.5" stop-color="#FC7F59"/>
<stop offset="1" stop-color="#FBAD56"/>
</linearGradient>
</defs>
</svg>
